<svg xmlns="http://www.w3.org/2000/svg" width="2rem" height="2rem" viewBox="0 0 24 24">
	<path fill="#FFC205" stroke="#FFC205" stroke-linecap="round" stroke-linejoin="round" stroke-width="0.8" d="M12.854 3.5a.979.979 0 0 0-1.708 0a27 27 0 0 0-2.057 4.762c-.139.431-.551.73-1.023.743a29.4 29.4 0 0 0-4.267.425c-.774.136-1.065 1.018-.515 1.556a31.5 31.5 0 0 0 3.41 2.892c.367.269.518.73.378 1.152a27 27 0 0 0-1.14 4.927c-.1.755.708 1.288 1.41.928a28.6 28.6 0 0 0 3.98-2.472a1.15 1.15 0 0 1 1.356 0a28.5 28.5 0 0 0 3.98 2.472c.701.36 1.51-.173 1.41-.928a27 27 0 0 0-1.14-4.928c-.14-.42.01-.882.378-1.151a31.5 31.5 0 0 0 3.41-2.892c.55-.538.26-1.42-.515-1.556a29 29 0 0 0-4.267-.425a1.1 1.1 0 0 1-1.023-.743a27 27 0 0 0-2.057-4.761" />
</svg>